<mxfile host="app.diagrams.net" agent="Mozilla/5.0 (Windows NT 10.0; Win64; x64) AppleWebKit/537.36 (KHTML, like Gecko) Chrome/141.0.0.0 Safari/537.36" version="28.2.7">
  <diagram id="f106602c-feb2-e66a-4537-3a34d633f6aa" name="Page-1">
    <mxGraphModel grid="1" page="1" gridSize="10" guides="1" tooltips="1" connect="0" arrows="0" fold="1" pageScale="1" pageWidth="1169" pageHeight="827" background="none" math="0" shadow="0">
      <root>
        <mxCell id="0" />
        <mxCell id="1" parent="0" />
        <mxCell id="14" value="&lt;b&gt;Google &lt;/b&gt;Cloud Platform" style="fillColor=#F6F6F6;strokeColor=light-dark(#4284f3, #ededed);shadow=0;gradientColor=none;fontSize=14;align=left;spacing=10;fontColor=#717171;9E9E9E;verticalAlign=top;spacingTop=-4;fontStyle=0;spacingLeft=40;html=1;" vertex="1" parent="1">
          <mxGeometry x="230" y="110" width="810" height="640" as="geometry" />
        </mxCell>
        <mxCell id="1Lb6V3S0d3qDh9J-p9Ao-1050" value="" style="rounded=0;whiteSpace=wrap;html=1;" vertex="1" parent="14">
          <mxGeometry x="20" y="185" width="700" height="115" as="geometry" />
        </mxCell>
        <mxCell id="15" value="" style="shape=mxgraph.gcp2.google_cloud_platform;fillColor=#F6F6F6;strokeColor=none;shadow=0;gradientColor=none;" vertex="1" parent="14">
          <mxGeometry width="23" height="20" relative="1" as="geometry">
            <mxPoint x="20" y="10" as="offset" />
          </mxGeometry>
        </mxCell>
        <mxCell id="6oM6jQgth_Qgc0BgZcU4-1048" value="" style="shape=mxgraph.gcp2.doubleRect;strokeColor=#dddddd;shadow=1;strokeWidth=1;rounded=1;absoluteArcSize=1;arcSize=2;" vertex="1" parent="14">
          <mxGeometry x="104.51080645161288" y="58.56697819314642" width="534" height="99.5638629283489" as="geometry" />
        </mxCell>
        <mxCell id="6oM6jQgth_Qgc0BgZcU4-1049" value="&lt;font color=&quot;#000000&quot;&gt;Instances&lt;/font&gt;&lt;br&gt;Compute Engine" style="editableCssRules=.*;html=1;fontColor=#999999;shape=image;verticalLabelPosition=middle;verticalAlign=middle;labelPosition=right;align=left;spacingLeft=20;part=1;points=[];imageAspect=0;image=data:image/svg+xml,PHN2ZyB4bWxucz0iaHR0cDovL3d3dy53My5vcmcvMjAwMC9zdmciIHhtbG5zOnY9Imh0dHBzOi8vdmVjdGEuaW8vbmFubyIgd2lkdGg9IjIwIiBoZWlnaHQ9IjIwIiB2aWV3Qm94PSIwIDAgMjAgMjAiPiYjeGE7CTxzdHlsZSB0eXBlPSJ0ZXh0L2NzcyI+JiN4YTsJLnN0MHtmaWxsOiM0Mjg1ZjQ7fSYjeGE7CS5zdDF7ZmlsbDojNjY5ZGY2O30mI3hhOwkuc3Qye2ZpbGw6I2FlY2JmYTt9JiN4YTsJPC9zdHlsZT4mI3hhOwk8cGF0aCBjbGFzcz0ic3QyIiBkPSJNNyA3aDZ2Nkg3eiIvPiYjeGE7CTxwYXRoIGNsYXNzPSJzdDEiIGQ9Ik05IDBoMnY0SDl6TTUgMGgydjRINXptOCAwaDJ2NGgtMnoiLz4mI3hhOwk8cGF0aCBjbGFzcz0ic3QwIiBkPSJNOSAxNmgydjRIOXptLTQgMGgydjRINXptOCAwaDJ2NGgtMnptMy01VjloNHYyem0wIDR2LTJoNHYyem0wLThWNWg0djJ6Ii8+JiN4YTsJPHBhdGggY2xhc3M9InN0MSIgZD0iTTAgMTFWOWg0djJ6bTAgNHYtMmg0djJ6bTAtOFY1aDR2MnoiLz4mI3hhOwk8cGF0aCBjbGFzcz0ic3QyIiBkPSJNMyAzdjE0aDE0VjN6bTEyIDEySDVWNWgxMHoiLz4mI3hhOwk8cGF0aCBjbGFzcz0ic3QxIiBkPSJNMTAgMTBsLTMgM2g2eiIvPiYjeGE7CTxwYXRoIGNsYXNzPSJzdDAiIGQ9Ik0xMyA3bC0zIDMgMyAzeiIvPiYjeGE7PC9zdmc+;" vertex="1" parent="6oM6jQgth_Qgc0BgZcU4-1048">
          <mxGeometry width="30" height="30" relative="1" as="geometry">
            <mxPoint x="15" y="15" as="offset" />
          </mxGeometry>
        </mxCell>
        <mxCell id="1Lb6V3S0d3qDh9J-p9Ao-1057" value="&lt;font style=&quot;font-size: 18px;&quot;&gt;MÃ¡quina virtual con redundancia&lt;/font&gt;" style="text;html=1;whiteSpace=wrap;strokeColor=none;fillColor=none;align=center;verticalAlign=middle;rounded=0;" vertex="1" parent="6oM6jQgth_Qgc0BgZcU4-1048">
          <mxGeometry x="335.4891935483871" y="31.43302180685359" width="119.52" height="30" as="geometry" />
        </mxCell>
        <mxCell id="dlkvKGnTGBFowRJgqsGc-1049" value="" style="shape=image;verticalLabelPosition=bottom;labelBackgroundColor=default;verticalAlign=top;aspect=fixed;imageAspect=0;image=data:image/png,iVBORw0KGgoAAAANSUhEUgAAAYQAAACCCAMAAABxTU9IAAAAbFBMVEX///8A2P8J2f4A1v8A2v4p3P4A3P77///N+P/r+/9f4/5a5f5W4v/c+P/0/f/m+/+F7P/S9//A9P/o+/+v8f+c7v/Z+f9+6f+08v+R7P/E9f9z5/9n5v+h7/8+4P+58/+G6P874v526f8j4P4ItNtGAAAT90lEQVR4nO1d6ZaiPBOW3QVQVFQUsbu9/3v8gFSFhFQWnOn5PL48P+ZMK5t5kkrtLBZOSPZV3TRN/XU8uZ0wYHs8p7Hvhc1un0w9d8aA1c0PPIbA8+uH+5mnr9jDU73Ar37vGT8dd09G4J8zpxOP0fjM2O3EGWOcA09FahdL95A6sfgHT/x52FFD2U7qdGs87UJS0MJ82gwK+0Gkt5CG86zfaLNGPDQQTw3/4cN/CBIfxjGqLvtLVYfDPtvuDbot+ixy5a/LfXG6VjE7Mzj/0x/wCUBhxIc7qwQ5E6Q5cc4pGlaPV1/557i5HP7Fg38QclgI0ja8TIVpvlfOqUSdVCLph33z88sP/Wm498MW3EcfnwYaxtIlF3aDcrxpMJXVn422SWj6UYvVLwo+1kGzEj4/+ZyCmyqqrozT4+898AfiwIaTHLTBhPMH3f/IF0hEGgRsKaS/9LifiSOb7tTuu1isUi54kCVuUwQ7+oJlMMujqbiZJy5fDDDmNXIQ6uziLft+NpsnoJceQan9fgu6vxfU7V+4MoJUP9NjcqOfoQez1IKr4ZA1DvyGq0WByVe6npXUiQDhYTSuuFXA1SKjp5sd3vzd5/xoLNkAmw/aexJ8s3v1Emh03hkaPDyXERNMg3ZLtvgkCnbYrB454+gmOw4DCw2tzQ7Y9sf6tsNmcDCnhd20WnFZZJ3h7FB/ZTtuBoKZVhvrcRu+EmrboTnbZubIjjMcSagF37bGUuaYSZgKNxKk+KfNDptJmIq7y8Z8H8WSTaZdS4KD6TFDBFPqI+MxYEt4YYE6kjGr5TBvzBOxt9sJWxh6/7A4oalg0j+zWUWdCDbLfcMRSQwj39nJVzQWDCeAsfaXH/STAb4jg+yAMGfAIs13ez7FY3ZbTASE+fVCHhQj7uyGfApD/NJpr58hwhemOQFIDAtu/BNMANCqoDs3m27GgEaa52Mc1D0gCdlHWo2KxRO+/upTfjhYePOm+RZyriVVB7aRQDfXI4u4mqGgNElwTKiTAwgP47YAWZXLF54l02L12Qrv1ZAcgZnC49H+Mm0LJ6u+pQUIOgJ+HKfV5+YOHKi5zoAJkmF1q+vNZpN+p5vNur6dd+pOMYBFKF5KzI58Azq1t/rUBREqoiU57e9fdROPpyMxQZ/prToupRXB0rVfSv4yktAT8anVWGthZ86LrgSwqzawE4Dojg2jdfUAW4OpWy8NlpWElobPrMZiO3OcLMs69qeMvsKF35yP24T9ZXa0auBAgm9J9XgLHI6XDhPGAFw9vvfy+ItUYFrMSz7UiA+0ApGGt2eBOeSCCSL5Sv1mdXQHuBwe/gkJ0W6Ec/0dCjy8fYrlsn9Wb+12dPKoLRTEUbOpf76qsrwzlFX1davTJrac2FTThTcjgdzUk+uG09DKzsmX/qeYQsJjTYmgfqNt4A+dJd0Brekm9MjrtKrtxBCngYQW24azYHqsN4AzCdnZV0au/SCuq8spX1xAqpim3Imd728Xh+X93BCbSuA1lykPbyah036RhfcOYDuSsG/GA+b50e1egDEEYWKLjgM5qujJW+2rVLF5A79y3x5sJHAW3nwpOJFwjAjxIXpFme1gdUczgSRlX6g7ReDdXOetlYTFN7BgXKL/dziQIBfiB14EQz5spFcQNLZfWsBxgzMBvE3NiIvaLfXCTsIWl4I2APIOsJJQiIX4LQNlhoGdwchlDovALs9v4xXDPggXeat2SavN0BpggJ2Edo2yY966XN1CQl6LFMSgvqxleQSy3sHWALd1UEh/sxy95JFKrQEctmgHEvZAwltHT80kPEQxseYuf5Z8hPIIc39dRMhR3psh0oCcrEprawAJDiTkIZNH+jyC7fLxeFwz900jz5b7x36ZTfDQ5tm1vclSdxMjCcMyCPyzoLQwZQiTTNm6cHTBMS0LnbDsVHGAHoL0I1oDyHAgYRHDpkAOWVF9g9PD959nB99Ndt/E4GlpbcD66KDJ5cc6xpt4o5uclh2KOyMhZX8ul0KcYMV1onEvBBg8FgOA3Vadasl2qy6ODMa3nxM5Rd9yoMGWS+xCAuhHlHPq/vRE54Y1/pDcI0/2Snn+xuISKda+eEp/k2E91Djd+Lc9hlRfodrmPH42UGp6+QRzezRrT+deH/WbckQEi4Cy4b1LYo3jOrBv3memkKDMh0ssDSg7KtSXpS7uxAntGNUG4rYb6pSQB2N+1G8luVTw6dgQajsjqNNyQKzLG1822HbBqJcCNurpBiUiTmW/1+c31/9CNxKeHimO8pT8/e0OrtnaThF9Qjum2pK8iqCgP2UDi8FCQsZHkQzPQ/einMd5pdlcybadLNth+tfIM5k5n/MC6G/dL1xM2hNG1loRjkUA/9snBUw5jKd8fHcGzUKykUWXeMqTzQkzCRguDiJ6Ypxw/GBIJbdAPbav5XEGu/mEVgO9nLE1gEkiOZCQwc+Ut6wrDkgrL6vL9Xo9Vq29iGNAbNC3gbP4uf7Z/ayfg6yn853zSKAtjL/T5hkLjt2cXVaeAADYE0CcaHOFeK+XUB3Im+rjkOy4K5oVnsqfANyTDN0DHEgoPXmF91giBXE57Nd5K/Ph4/HM5nPai3cFLqm8tWvwY0K5TJ7DgFfgY0tOJb9H1F2n+t50aNhn0YYhZZZlaU3jBYWf5ThK+s2FjOKI+wowDGVtWvUix+6d2kCDAwmooYpMbnF0xmY5yHCYpgOSGD4fieaCD6n6I745b/JJFzhHXG8FZSegU9Rg6yeiGSc6jXI6eCMO1En8wlBvkgAL2s3ZTsIdh0IkEvdqNewJW4Uys0/dx96PYmslqHspEqPCG9fjk5JOJZCT3UhjDRLpjK5VobGgJPIrciF4gXjTWvjclP64Ai+HzoqyknAAe9l7Sk/OPqNy/rbsBMXf144pHaqGeT320p6QA8qEbX++nANCkQCz3Oz+HdQnOXFLF8UU58qWXkQqlmavlI2EnIsLgWrYqmmtDyWDYno+aaUJjlcYhaAeyUH7bSybjhQJ0BHNkqTAe95Jk7nwNJCKe278XItNDGtGYw9ZSDhxDsQxZQaCNvbB5Ig3dh+edLmyTCB5svaAbkONLMlH5jtFQtX/cHNxoNCiVpo1pTa5QlQ5eL2/LdUF1ozGiWQkIT8Pqp8wgigotHZuv5W7e13B7yNvn7BVuCYYUCQwz5DVIRcTC6E1PzSQFxamb1tLQ4zlEFoSku2l5nq/PEJM4zf8uiM7wPV9BAWxsE5GiaeCIoH9cKs//0gsBAx0EiRIT4Q6lDXNhQmuL/pLyDsKYwWeaJ6Kpe8JbNX6FciOsM9BANvK5fL6HSwEx0sYSLDS+KBIqCkC1OthRY+1KsG4Kl3SIEfjs7eHc/u1IulTJlAkMOPEMzgDZVAksIG09kOLqNE9E+PPDpPkOu7MVtFrbJDnkhDsyVs/00+NguLiGddKnkuSniABjEH3PBuKhNJaq9wBS5TlpXDUbsziIw06qkX0FsYFY0+N954jzRJ0R5MYZMkBlAcpK9ed+8cLn+sSr0uQ8GAXcF1LNAkF3Yh5BFpFzTwNJGNiEFqWnZl5OHTGhJmEbqGN1eyEfWUsSUliWphc+ofBS3vxrl8rBAmg5brnOpEWM+g9RvVxqxnf8etakClRQxGZMkamj4SPVrzXMNwcSEEcr++qPMjYl89FYgAb1pE4Lp7j4ABLCSFIqNmYujcZJUkoqUDNCDq3hU4eiQMiqFBGaw3ICnQyC7Oy1wLQUUGbmug/VfUpAewCsuJbUvEZL15SJDCRNyEjnw70g8/GJCt0Djx6KQTivCpEngxbD7iO9KoMZSccjTl3D014jBhgKZq0E1z+cRxFMVt0nnfMVRLgsdzrUWkSwB1tYEHvypZ8pAhpSMCVzdaSXhXGbjF6sUgaa+i2IZ/94k6CuK9yZ6z3vJ9YjkJRNj0Nu1ghAZaSe1WEJuUFuvzqw1oY1IGBEp0AlEAStZE9euVYQEgn9LBZksFqJEk44ChSvo7XSODJlLGkMmV1pyr5v0YC9kLQhTeZtA5KMrypsCAHYSG8mcHWo5H4JQoyQ1CDdluUBoG0x++s8AUSNjjS4yueMHxGiSP3EjRd8teKy3xyIkIvlxUP9EsjWcgpxNIrLYRAP8SOKN1nxbtsm2xbje/oqRdI4HmO85Ud/CR0BVFiYUOshG/aEauHNgOPS+QgJWQy+7I760JqUhWm9wZeJD8MhuS6izJzgbAChhcAGDMpNCTwiIoqkNCYnZQpD1Egun0ZeMZFEqw+wjH0aZDboYBDsVsg4tAvODr5a7E/N1EcbZTeBpD89cVuTgr95ZD8ZTZ4dF5UrA1RXcngv3P2kfYwuoK26koo7f4pGYZc1HwYi3g0TjCF+/9r0yBJSGmQYBXKgyjm4ltcYFpXdqwVSM1UQ6oVjUbHK2EnXCc6UZ0TgiWhAiIFtsw/SAgu+dbCn2d4IYzn2zRtLQk8p0XZHM+q9LChMLqCCBJyf6J6ZE6Nvwjba3znMhFSH2FNY5jMxWl4kVPjmUebW9yJ+I7aYP0HqfG1TiChejQhr/1qdAVRrmxYbs7v5bAUiQhvKvIC/wbc0kUiDhHBcZEILAx2ZvHjizdzsPr1JGDsRhFIuCk4+/q5U1SjKlMklBOZtpZLPSR1M+pLvl8ul/rh6ingiPLoVMlNYv60XOqhE0i3aeHfxSsrYQX3/nK8g71wMKnEguNW5azAjlILB23Mg0dDOA5MhTSWipqDtVs8xBToTzUCCZV+9yI22BM0mckUCVwaOoZ1XEpo8zNVgf93SmhT9cLe2rXBgokEmI3qDE4NuV8MI9qw4oqeYiQJyLRmMy9Gy9OtmDyv1HL+qNpzl8ZLxeSL7HIe1862bP+4V98bU17uGoGEedq+LpKxGrdIeprUWpIEXAq0FpbHo2cCEuyb6l0pKGcdi+7XbcLVKGM+HYaBtosk25e3huhwEUT3KbasOfkL3aljgYRpkDHN9jIc2zyVaRvZkDovrh7q2VZd1ZvkO0ZnCv07JBQ3dTn0A+lH6dm3CyTwYIeb0Kc7jHDtyxWWBiO4FMYCCQoHyMLEpKNodMbW4Bxfa6Y8VwyisWxd9knHknqWWSWkdOm1rdlR1Ky7TjtCq52y+jrXmyaytMjz6+lF95Y0yEojkA5YpqN0DkjuIZWNgcJFUZB4IxlV7vC2Gt5ZSnHAPVtMhoN1wwX1ziIOkv3NPJgwqyc2nZrgchRgSwiONQKpGAp16iv/LrneQnpMwQRupbY0rfMdHU9g4MVSnp/eT92unmTH1CfvgGuzaUVBvv+2pQHzLJS/0Xztt0ko8BePbdeTULIWNj/tuq3qRqh/Gh+/59N6vQcl6cASLb1KjawBcM73MVEvjPsCaE6ndChfs+1h3dHW5gjM3xM9+o5Ff0BFt6+n1T5nSupLvSes9QlYaqZI24NQi4kPxP8mOjrcBdKe32n6HfssxvxYkdpRj52meFM9/DA+wNYdgQ1aLx6zR1VH4bSOnNgq7FZe2Z3+4NWbVhISrJZSFQ/dCHnehnKXXnyZNbhsplFRGa4xeQ8irbOSD7TGIpTmtIfiUv6sm9CzbdpeN/jrc/koRLsHMvleaUhkL5fickRdaVlK0NDOBo2Ksm2UvCO/S9cxkbBIqlC5SXsLIpohldta7XnQ9onrJPiuR//rVvdViGn3b13fKviC1LTBCftKx0ZQuEyrCF+6R73xITuL2dv9A/4Yoj0PoQuDN2Tgscvryq3z8infw09pi3bHD/OUAkX1UQwNyzE9dXwNSKIP6IFW+z67Ige4HEMftKzWcdjN1th/1qVtIpyqb3Zw+F3hgklYQNrwDKdy09/DC8PnTd+S5FBFnQEVhpujVSoYRTi+u0X+NeC304V92CbzZbvxryFZbbeH3FUcrrJsO70Net6dtrLdIz9kmVMHQBbZ1MkssIolZ1dikRqsp7x7RHbG4tlPal2MFjNlxAFHR6mOYxZTmN8uNQFMsmjdpVclgRJ8p9ZT/vJzfjLYVDdEK3DM0UGF73LRK13wUuz5tY/OgDa/hi1mA6PO/B+YHmxQIyEY8ZHvOfgdMC3UKMAxY6JTkbBK0xj5ZCHrV95s9B+Fw1touc22HQgxZrwx7eml11j8N+HyjkYsAvGxf5fFEosE8TXDAU5vJsfceKwwsDV1fNlk/o+CKT+2tAr59fC2nEPH4vUZCDcSpBZsVi/1TMJEOJLAvZee0stMBdu9X4qt/TdRuewJHTCuH9jTiNihb91c/73ANmZ7g/ih5U5jXQmsGmW2E5xxtNsJHTbCnhBbHBLQMXu2mJ3BLGbL60qTRgo6G9t5dK0O+oNm35EzoNzJKGK2fD9AGozyfu/UVGbGAHAGmQKBe74EePmZsZaqclNkZwwwdoHqwA21Tgp9Iwup3u/KonFv/dKbdwMLb2rVI14FDvsxrz3UNriHfXk2EyaAefB0rukjSqKggak/eDA0IgmiPm4v9ZrRA/JsSCfDli8DoQp84CUiFwOTRlald4YI5mQgwjrJ16CVSk2DDe+F4b3ePvQ17r+FUtMh785LSIKR/M8Hs8FXSlchSea931D6doCQsBwsE4vaAqVbvdBKPvBLaTW4NKifoQK3Wm6B5dKLmskq8CIeaPDqIZKJ7ZonNfyYIby/oin31+tx14ilbIHujVdn0ZPhp+VjuXzsMPT23m/qfUvwfvGBN6qGCiK9L/QkOZSkQqr3flHvm+JL87YQ39zB5khVf87C6FWcidEMQnsToTtJwyulCTOE/mhcujRufgflJeeBpqZ7hh2rmyfoO6z5ixtOO6GbSGB62eUMK/LHLn3Gz6au9lPjMdvL17qJ4+e6mmOaGvwPRCfjP71nBYkAAAAASUVORK5CYII=;" vertex="1" parent="14">
          <mxGeometry x="50.63" y="230" width="161.67" height="54.17" as="geometry" />
        </mxCell>
        <mxCell id="dlkvKGnTGBFowRJgqsGc-1050" value="&lt;font style=&quot;font-size: 18px;&quot;&gt;Frontend&lt;/font&gt;" style="text;html=1;whiteSpace=wrap;strokeColor=none;fillColor=none;align=center;verticalAlign=middle;rounded=0;" vertex="1" parent="14">
          <mxGeometry x="90" y="200" width="60" height="30" as="geometry" />
        </mxCell>
        <mxCell id="dlkvKGnTGBFowRJgqsGc-1052" value="" style="shape=image;verticalLabelPosition=bottom;labelBackgroundColor=default;verticalAlign=top;aspect=fixed;imageAspect=0;image=data:image/png,iVBORw0KGgoAAAANSUhEUgAAAXYAAACHCAMAAAA1OYJfAAAAbFBMVEX///8AlogFmIoAkIH6/f0Aj4AAk4Tv+fi/3toTnpGdzcbo9fTC3tqGxb90vbXR6uiOycJPraPl8/I/qJyx2dTa7uzJ5eKm1M9rubDG4t+Mx8AxopZasae23Nh9v7eo1dBUq6E2p5ttu7JhtaspxJQsAAAJ4ElEQVR4nO2c4ZqiOgyGgdIKuqLIgI6I7oz3f48HmhbakoI7O7junnx/5hmppb6UNEkDQUAikUgkEolEIpFIJBKJRCKRSCQSiUQikUgkEolEIpFIJBKJRCKRSCQSiUQikUgkEolEIpH+UZW3a54KxkRaZMfyT4/m/6HdNRUiDMOoVftHiOiz+tNj+ufVFExI4oPCkNXHPz2uBRRL/elRdKpq5jBX5EX6Nvvl8rr16Xp4wuC13uQp/Xfortln97xO2/nUzrA6P+2TDdJsL7t5X26cWvGJo9AleJZjYzOVcOET333L+Mpkf5qdnivB2jOy2neYcSbHFCp1jXm6H02MqGvG17896jntIuGDDrammf5+wkKfvgP7Kg3bVT6cxb6GYXDPdF9F6AgZuzi+Qyo/Xhx749r08YTfT3awMPYN73qKZrHrSZzjhz3Y2y+wrdXwOdiPbBp6J3ad6uE1sN/0KDju+WrsgwUcZvzHymj4FOyPUG+5bye6UNhTRNHzsKf97L2jxxX24n7Ksuyane5FxPWVEmnsdLQw9uQh6i33CU9SYV8pz8zSNwzxMewJH6wG6j4BdmZ4KPFhXbOxZXoC9k2I2HXHUCju/nnbY19ojA9hzwebIdBbU2H/YX/6pmwNH/zkJ2D/GFN3zXOUwsf+3/0K2EvZqAYDL7C2OPZgkwL3tP9keez7secYRg6++ASXRmS+Xl4B+6mDx44xLJGYRfRgDzZquvfWZ3HsmIkRZ8tEB1WqL43wmZmHsc8be6zFI9gVuzjYCnvqDvJhV/6+6J21xbFnSJgUHqwFcTs49aHHIX4Ee1wdP3+2YXmU1j+vCU5wczvlXYvikh0ro4nCflgNGsXNe6Zs+oHZU3eQF3sMi3Ef3S6NfYV4MeGnMdmDsjYvjG+6z2J/r7kMzGHBa0PObJxv2OVdE2jQBu286INNwB5yU+6Fg567Xu9dH+KC/Fof9uADBqb/XRr7GZnsrBywB0c7fg1xh3ge+21w7pSvwW5OkysXdhOe6EMb99vSmlhq5GSXw6tkazb2If3YM7jaevxLY08RNybvqQeb3L0sAic7i303BsftfEM+CnR5390D2IsOnErGSGpiHFb7sV8Bu75SC2PfITamjSY09WS83go8CTyLfcXAtjDOmJ7Uw2xuddJRi7Qg0tgMq+I8duU9wj97hl2YB7Brw7cw9i3iPdZ6DyD+RBLwHisziz0OefTzekzeq/fmmmrEA5hKWe96X5WHskq2BeOn/qjGbiaUbajSSmhQG9k/G80QP/ZCWBdqYewF4j2+AfZgl2K54DBCO5r3ZKx92SP8SuOHXeATI7+8ug3GX3kyK2/OYQUXLTZ7E6O0ux+7Ey8ti70dxghrqn7T3pMLRlaq4NfDpR3c1IX+PxYjq2Nq1m8/ygW1vz0gOzPKQ3qxw/CHBNqy2MuxaRf7brIHh49+gXMboGgU9mQ3kufUEKD0iyaYZizEkZrFDpx6hzPGF1Uv9lrYVmlZ7M3IjMCNHFQfudKldrgLNA+psDNX3Le/FtuL6ju3Jr+rOewVc64aRKpuYsaHXS/n/c26LPbbCHs7QWzD2bguJp7b821z+EnKmKb33WFFxdeNYB47BEjn4YMDuO5OaIBjX13UnBlujmWxr0fYW8ttrlrxaeTMhGg67Nexny1SYGSwgF5qBns8jo9kEtg9O4a93IbaoR26fzL21j20cmDIxvZ3YX9jpvUFmxNGnuKOGeywoFqnegMf0l5UAbtYl7Ds/LidT1EfGpubj0/GznZGXiDeYoUzk9j5SN5VUn5jyCSr6BxfOeaw15bBkoqdnKKU2tQT/dJjlG4wszbiubY9/DColx9oDcekbTdThEpmq/jQrLdZdl03Bxe7DohYuka80GnskHhw0haZHQBJeSsH2tNaLtey2BMHrGiGdMzR47dPejKTfntyj7rMQJddZDysQwv7kCtj4j4qc5nGLgm7u9YVEql6sLfjOdtdP9VvV6ES5MB8+9qTfvsE9iZyE4w29uDYHxc8WtsYJrE7vqgWuO6WwUewdxnmYu12/NQotZ3IinqDbWuDvhalxnckmWVjD8p6uDBMbM2+JrE3cG734zUEvuZwtW3XC4+I6su5QQb9zJyMznkEcYYXoUIjtKM57DqrK4S1ljmbs281G8CHhjWbxA4FA+klt1XAGczssvJkjtKTKQ/OymPomRnIdrGcyIFp7F/KQG6ZmmYf52Py/t4ct3AdRnviu1NfLxTyz/7jKeyb/oraUr2YrpQ/Febomfl2sZHh6dlf+ht9Md8OMWPI7sZG3g+GYW/RrFNtj3jv/k1hX/vrAGUnxvr8KtjN3SW5hRqUxWTp79d2lyBDYv+MxIO91ZvOx/cRzBT2dIza1JCWfCHsxl5qt4Ua3Pxr6ZSNmcEuNxHM3x/4Z7vUWpl+XaigvHoMu9otREvrQ2dQL4N9qBzoajG6pNAk9a9VDsCvdYrOJ7EHpZqqqsMVFhCBICxK94hOTjr3dbAPdTKiCpLxroc72b9UJ7MCV84+OI1dddhvVHCkBylVA4ZW30OGzHDdXwe7rgoLi27ezFCPhO+JyW/HDmUvLDH/wyrlG7ggeAoNdgqHSON1sOt0WLidWUsl9a/VQK4waHPYZfKgz0/Bf0he4oIleLUgkBpuhRfCrkOmmbVUNvlqxS/kX2xDMIcd1gOdgL976ELho6/yXqeT9f+vhB2tb0f15fp2WNtCq/zOwe5+s7Lz5eCcs9GDa86WLH7i/j57Jezf+zQHfhTWttT0ZRzsdd6Yt1IF87QPMVXAJTT3OMklS7iPfAs9bNEOZ3kp7N/47NJkjqMrPtomu7LLiLzfwChrIDETLLzsk6o7nJwL7jooqn6I19n6uN7eIy6fGoW9wPFNoBWrlKO6oq+FvdsU+z3qc9irvqqLQe5PVeT12GUDfbRPlBllB30NpVCJNJlfh/B3It8MRXZcXZcXw/7Ic6nTY5jLQB7RvO+AHUusCGtndT/qIVDrrhP+WoLbQVuhV8M+nXXs3BxfvZbS7DZHE2IZK6ax5yOoghd2b1vuHC+V6fbWG3SqoTGs5i+H/fffOSCtw8Tu0uosBusBG3ucp/qXlduIDxvKnbX5GF3o95QL/dRBe/wWBxd51sln4vdg1GCRWIERm5lCrSLZ7gnYJ9+wMfPCgVYrKIGYfixptz7ldZqmdXE5bddNZYeW5S3L66h78UWaZ2/odd7t70X3/TyDLSE46eS7hmKzjfpnvlIT2s3NtW+S530y7lMXv6nJSzOu5f217/+dGr89KaO3Jz1F8l1hoXxX2JXeFUYikUgkEolEIpFIJBKJRCKRSCQSiUQikUgkEolEIpFIJBKJRCKRSCQSiUQikUgkEolEIpH+fv0HoQR5nz1pI+QAAAAASUVORK5CYII=;" vertex="1" parent="14">
          <mxGeometry x="480" y="230" width="168.99" height="61" as="geometry" />
        </mxCell>
        <mxCell id="1048" style="edgeStyle=orthogonalEdgeStyle;rounded=0;html=1;labelBackgroundColor=none;startFill=1;startSize=4;endArrow=blockThin;endFill=1;endSize=4;jettySize=auto;orthogonalLoop=1;strokeColor=#4284F3;strokeWidth=2;fontSize=12;fontColor=#000000;align=left;dashed=0;startArrow=blockThin;entryX=1.012;entryY=0.392;entryDx=0;entryDy=0;entryPerimeter=0;exitX=0.014;exitY=0.363;exitDx=0;exitDy=0;exitPerimeter=0;" edge="1" parent="14" source="dlkvKGnTGBFowRJgqsGc-1052" target="dlkvKGnTGBFowRJgqsGc-1049">
          <mxGeometry relative="1" as="geometry">
            <mxPoint x="460" y="250" as="sourcePoint" />
            <mxPoint x="394.31999999999994" y="304" as="targetPoint" />
          </mxGeometry>
        </mxCell>
        <mxCell id="dlkvKGnTGBFowRJgqsGc-1051" value="&lt;font style=&quot;font-size: 18px;&quot;&gt;Backend&lt;/font&gt;" style="text;html=1;whiteSpace=wrap;strokeColor=none;fillColor=none;align=center;verticalAlign=middle;rounded=0;" vertex="1" parent="14">
          <mxGeometry x="530" y="200" width="60" height="30" as="geometry" />
        </mxCell>
        <mxCell id="dlkvKGnTGBFowRJgqsGc-1053" value="" style="shape=image;verticalLabelPosition=bottom;labelBackgroundColor=default;verticalAlign=top;aspect=fixed;imageAspect=0;image=data:image/png,iVBORw0KGgoAAAANSUhEUgAAAUwAAACYCAMAAAC4aCDgAAAAw1BMVEX///8xYZIAAAAuX5H7+/sfWI0pXI8kWo4SEhJNTU3J09/Ozs7Jycnh4eHo6OgeV4yous6/v7/Z2dnu7u5VVVX29vbU1NSEhIReXl4nJyfs7Ow6OjqlpaVra2sKCgouLi4YGBgfHx99fX3ExMSTk5N0dHSwsLA5OTmXl5eLi4tBQUEqKiq4uLjT3Oafssjl6vCDnLkPT4fBzdtaWlo+aZdyj7BafqWitcpUeaKNpL9zkLFHcJxWeqKJoLy3xtYAS4UAQ4Hfd4flAAAVMElEQVR4nO1dZ1vqTBMmnR5aKBq6FBEIwYACyvP+/1/1zswmkLJBPcejXpL7i5olCbkzfWfXVCpBggQJEiRIkCBBggQJEiRIkCBBggQJEiRIkCBBAh7kQm5uDpq12SxTa0/H+YL83d/ox8AoFiqAQrFqcEZvKrn52DTH81yliJxVK2Zz0hMDSN82zUpCaLHcaM5aaaKkP8k8Dsxc8UypUb977J4562fa5mAixiAzvfnGB/l2GGaTx8psYJIMGtNZHHFiujWpNduA5qx7FtNB4bsf6btg3MdSJYqTRt48/9Vpdbv901/dwTxXPCu1XK2MBx7tg+o3PtH3Yezpbns6zxWqhlEt5Mrj+8czaYRHM+8RJ9/kx/eDOZ+um3GNnWB+4TP8EBhMwTNmVDGr5buaJ59znktiF7AWi2x2sVhYJxktDOik2rUJ580tPnY751NW2e+Nq+UBOJ47l0rZIpw/YO0PjqBpiq5oqnDY7tYWO14Y4WUf6l/wBD8HRgvFrky/y9Z6udpsX162m/3uKWt5slgtV+iji+X+2REAzvPm9ciGZetV1QSCJEiqogvbEuNziG+pU/6GZ/ouyBnURgpkjNJW1XVNUyVJVTUdfnU2y+xJuY2nZ12HMaJNwk8+7xYkodZWF3xQdWdHdFZJOK+IzQY8bhMJk58EWxUCQMpsaVMixkqCLgmhcd1+PrJBTQ0OKEu6OgUJ+e97uq9FDmNJ5NJydIEL6T/kxXi2+aO2c8TrWAc9dPywwONTZPNKIk4ZY8Ii/JL9Lyx2HmzkcqGrMcNA2zPSJu9DbKt6Ce+AbKZj44BfhbkbDGZjxFIQtA0ML7Q4qok2ptO7sOzqOzyMmn7/nc/4ZQDv0wOxsYRYsjQLTUCsXDLYe5S9MJuS/gpH5TaweQ3hZh2ecwo/N0ocTair8la7zCV87AXd92tYvslE4E3G3/ygXwFQwU7xkpKrB/jUMnb4DO2AbG7CrNtreBcQbg6++0m/AJDZNOFHvOTpQIb1ho67tDugyvJz5LOg/yN2l1+OIlPARSyX6nOKI25xbMoc44uiORbF29/vz8ug5ZAn7i5aTCt2NARtC5dch5wQenQwmv3fXys2ISkHkTnE6bHkgCFcvU8wBdfdrIIGVoXIyoCQ4feTCcbs8ZJN1PZgBt8rmMgmRO9G8JC6lVMyc3O/HBlys/G+HN1PWG8vQT2AnB8DJ0hAZgpyoN8vmS1Kf47xkQ846P27fLnHPiq64/dB0guR+fD7o/a+KA7B/8QZRbR38sVEMgIFjOza/3JUJplX4M3TolgH2YsjE+Us+wEtF9xM3h9sug6o9vsn0juiCJHRJk6R7ez7sh8fJHURtBvaKpWqimL7ux/136NDpcaXODL16gWmY4ABgOGzmm6ceQVlo8tkSpDSGAeXF0l603ZKmqLruo2h6TmcsktU57uCOd80kbmNIRPNXRX9j6rrkuMISnyBGEVSP6xKx/WxtAgEWxh6Qm6Q++5H/ffoXSRTe6UKuy2t1jSzax23dpx4SvbOOl/XOg8oYCoGV1HP7DIHFOPN9SfwJf/bZn0nHCNzaq4QO5b/umcypYOM85/d3+/MMQMaxtc59CMo7IJ9UjbYJHmWK8WSilzKi+Nytyyt/WSqe4qMRt/4kF+FBnmGUkz0Yx/dj1nH/YsjHPZI7I73YaQ9dXR0x7F1/eAvxGHZqX4V/gcLjY343NxmCp7dSLqmv2y2VJu0nKiiSw58bGkvLcNYSxi2WyfD4fqfyvc+Jwegatn18bg+d62Exq3FulQqHbPWey3UkErgcQVLInOxxc4EFWfGjCdb5lbk0FNZOlYzU1lN2/lfjwZntEXxcwj4PFjLzQFiFIR62JQifC6WW0fRFQViPeF5tfbz+bRcWuGPEwqQNIODiJmaRDJL/6keXQDsN+CURVDLS7oK/iorSOwPd4SSyclPm7SwtrpG7T8ITVN1ZRkQv+xWV1RVccdVVXdK50FFsbPhCzL0xV58bIRa7ZlIsp8le+9X4TOZcPVXRdA1AUIn/ONkWJHZyk+bm8zqqqQ7qxL2QC7Wyy2Ez4ovGrE2OC7sYdxaZI+7A338RCBEezFk1iicfuXHRkjgKTXXt69bRQLncsqJzlAYmQJJOM6zn4ItTIfuflh7jKVIklPyiaK11wX14LG5EIBbt4PKPbKBM1RPOOPJvLtU0AworKBia5Zu8LJ1rCGfCyLGuWyE5MMLa/lvad4zNAj30/xXx/Mr+HIhOpYKFWQQC8ybn0JOZ+0AwW5sE0/mkOo5MbOTGNaEeEbnHJVj7I7Jul4MPftJeDUYKKSDVY7IOoPbr42bZEnQduGDKCAkmtZBlZwoWRaIh8thPJmFntgNVnn8ZD5FyYTX8xSRY3QzllsIQWG0HHdAW1D4FUjMM+lOG0RyQBg1u2IHw7Ovw0InSxQ6KAkK6rEMBkpacM6CiFByyOnHkwlyglNdfA/EkUziN1IuRmmU3dqT+nJOgFSm5d3AHTPpQNQpz3tpcf4RNuTqXxkGeCInGlo+SygROEmgH6PnpPAdSAoJ9AUyRyyh5BpNDpmoIIto7V1fnK6BbQsemTpHy5HMYAmpIqYnH5nUmIvi32T6JXCj0dttFO0ZG1IkdRtz3hJkFiX6Apljatzi50AcMjHVtqJkotF0Da9PzSW8eST9iZCJRaWPVOjKYudvyMQnipJZ2uzBA601SeMpOUJWma29QCaE7ZlAySxEZihvJ+sYZR4ZlJmtwIqyzBwQKc4Er+9HlMwy68R7L+Z/RybYzFg2Vqr0HHviDgbli2QaM8z1ZK7R5HibGDLJy5eYxKI4ssu5EXvIWUfJrHxsVuMvyTQkeAr+BUAItGXsiah6i4tkotGsxxhNex2ZT4sjE9NNNyY4Be1kmu7FdKiXI0pmQfyQPwcyP/DpKPagryuuD1vAA8ZpOVAtUKx5icwxiQ63bYOCymARBKfLeGQKquERj+kkzQFRQ0K0lBklsy6Kd+zr5u9GzfZomvcJTnF8P2o22w2TvROjUDQhACkW2ar24rgBZzTG2M1YqMB3kHHAgHPa7L7G8G4wGtyPfeRZOkSazpLDWlaTHH4Rg/AiodG8RGaRFY54gaZtRarwNJPBIx5jJoOR6SWh2I8QDjK5ZIKPotjIPK3U7Hum4ca30riNhOAizx6tHK54y4wI9yjfeVo8UqiwQ6nA8tr2OaXNauCYNVvYLtdB6kqaxImaTtio6H8vkWlkMNKQOTO6kg7Ht0GWUdq4UkzfgoyF4sYAlJ9lxEzYPEXIlGfpDkoW8DYz84VK3qy5K5NSxoPYu8vdgKzVgZbuTSqVb49q6fQIUEzVO6JYwzOG04k4KrbwuvVOK9cTJw1zCma4MgEDkjdko37X8a+Us3YCLg5TNUV39qXsSWqXGs6yxGKlYdx0iUzsxM5zew0kIVrVQDMazYCI5pIrml49E+W6zikYhck0Bsz/gJSZ3pOU06xrYSq2Tksv62m3l7vs2sybXqflRfvyvTjqMjK7Te86xa448+SxWBPTvtsa69WzqtNSPE11tk9MQneaFBdlnocvkpkni8XRXcxrTomhR2Zsvya5m50rkRB+UFzU5jheILN8U/RQMUEzMgaF4j7eh+yvjN8z3YuTqksmXXQkdnz0NMQeI7PnGmC8++Ss29WMOAt8D8M67jYHSVdVSVUEmpIByXz5OzINEVVRjqbnSGY1eDimBMdE84k5dJdM9F4VXgCZSfdaJ5CVRJWWa8EK8ogYfvCfPxTTFR+ZRfHEGkKekMTX02lvJjRUR62kOYs4gdHXraMAnxJ8/afLav6qooRcJBNnFYr82Qhc5BdgjjKduFWBuEAAYnwkM6tTMzwocNSeA5npM3rd9tB98qH/U7kOepiMv0fJqNcNH5ljtrLuhKnIyDwJ81TsBgKgUVzDk3XEBRJgp45vOqDVW2TGBkd2pNUItTy2kwu7iuQDrVZb6xggFbj1IFDzebHgoXr6Ep3AY4DrMcnPjyKFZZfM+1ABJeeR6clfLRSVjcVeLAfgxyVVXqiScCE0YiH9ZTINqmnK0fYCnOt48nOMFSH5ObbnSKfeTKoU22gxRyHZYYiGRogwNakZeSWKjGoNc1g5U+2SORBrgRMqfWYzO57LaomjYfmM4fRSX8lSg4gcsmptHc+TRKOXyQRlwrUQ0eAIS06BmUvkKb5nm3XAb5HSvWsxeYkNn8xBJIVnvnvcZrv/dPqzqSujLpmj0DRdgYVG6Z5XV+mE9ltiq4sXpVKJYxctRwL79CKpq1ia1iykf4NMk9bXR+cusGbh74SlSYhLi4LQCqyxtungV2qLfd6qAD6ZjZCvPTtyozicDmoTiCl7LJQ/SWaQ/orrzfsemX1xkMsHMKSOe8XmqfJWhSAS5JNTUXKxV6k89waZBdJzIxq2U9PBmWP015Z6obOQJnbhTgvslqkEve2ZJS6Z0+BEUSp1GwgE5JvC/LbDfJRL5p3YD5xQFt3QyCNzxr0/aJbOy7/3WDBCPX/ik4RZKBXj3yATbtsq8vSc+tF9VtO6tP7KE038YpiV18QWd4UFkMnZGWEYsq/FPmpLYN+VQpcptktmOTTpORBDaj4IeW+DKvRgt5RSKooNyd1eFaQY0VyprKj8FpljSo7XUWtIJfyNexz7XuTLLa9oNdH+GMQOf6KMT+ZNL/jxsdgvpOazW//7GIm3+MMls9oLmORirxcic04icoIxo3cBYTLlEyFgjX1PS6J4oykm0TSh8RaZxR56Rk7czgr1K9aVSYuC3uhwR8OQ2sPN5FbYCHrgkwly1PeLxAPGNblgmWTALullQNPAViozMUwmuHM/23M3kn3VqLAVwgJcNeuzcLcciIxTE1XqbTIxAilwi5q0Sip1dGyVBeVxfbEn8tEUGCkvhGaoVvz6GEMmBKXts1K3WbYTWFggz1jgCDLP5HUGVtmV3PpMbHTDZAa6v8FIsFAKnIB0iLgg8LMaBU4rkMBVxN1nBUl9ZkffJLNMzoLnXNQD3sIobQVsjTFiO4c9aFu6Jfi0Sb1Sqefm0/asL3ZuzxIWQyZ+h1qO1YpyNa8o5wvaC00xXXevPSgaN3KqCjLQat6Z5j3k99NIaEQtFgOm6fJwIk5cpd9h/0aIj53qzj2m5I0C8XTQRVV3kiQ9u4oDZMYXkOnr31J2wKnDae41cJ8t0PID5LEXyVRpMapRC0d453p7JpQ4ntmERD0zajRGIHEtV4EbothvNqbm3aDZF/ss1cZtKlozrGHI4xorgfabeS/OpGXKHsy+2Grfm9MB3PTxpB44Ny7ts4a3q521hnTSlYIUVrYlSMJPhTnDWjoaxoULj0z1tRSFb4L4jp4wGpCrz6gQJ2Mmy9X186VFvtphjR+ujh7SEGj3urORmavUR/4tT0a1WsyOZoUGRpMQT87uTn4n3+6y/TzTtw2Pjer9rNua0duRC/n5uJzDkQJlQIVm029TCgMW8/drc9/mbK+SKmnKYfO6Wy53q62jq6q6P1vsowN06s5mt3xa7vYvEqaaIJrq0SVTUJUIsMX3dFOqt0fm1Vir+n3vzvcF5X28E1JfvK8kF+r1ymkryEeQufd0DsiVfHmYC2bjRiGXH+bDB6sRs1ZJp3kvyajn5+V8KHtYbFQNCNQIqqYoh0AWaSwdRaNRBYZh/HBcgzugeZiUxoePTMyjK5FqBy03Q6nFvSAbtCtXKuVN5PKAqWTKirZEQOw1+uwlAvK0ESipzakS/14Y69VWkDRd16TDnjMfhN2umm7bCu7ghsO4gY6+AYnIcrHwX6LOHGegiiFRquBtQ4oGa2lvjAvLKSmxXdm2U3J7lw0rS0XsQZyd/Bu0g/lk7Q9aamXDuPCOZcOqnsflraJGowA+Hkk0AzxR0Fh2ucTUDIMw5Ct2b64j60SS4H2+bLfbg8D2MAMj0v38Vb3zwCZz43/xvoJYXZq6DCDPRNNXxyATkXOnCzFRpq7Bc48Bh8zz3DA4RFW3HWpvLnb/zXKLmdgtu++oan7Fbj/v5ZJClrw/1iQZBBcJQWJ7jgacrbOgHoMLZO5tFQFG3dtGM/fgbt332Sjcgl8bTE3zboTTkD9pRXuOTWx5lTjaCqY6EdtzdxN7i7ZFIYpjyQTyFrvN9nm7WZWy7nv8h9sUGuas42pO+4ctzmwzw7gks6lQHpl59BykvKRoXafQNpbMqHAMqVH4321HWq3ny+X8z9tjv9hhNrxk66q9RV6arFYhL44bm2Y1bJbrx65cDV2xYLbEf8vlz8XY1Udrt6dQ8Y7qs8etoNPaaNUW3EJgDJm0UK1eL1ar1WIlNx65/25g9vOWp30FMOk9WzeTNV1ZEL5C8iU5mxImMVivjSETq6sQBfW73Yd+x0vKu+ZPcgxfiCoYuJ6rkwbuRewGcgZtJs5+bccvwsKYvR4ob0zawytYaB4DjITE5rxoFEz2L0DSoVahchcNQcxsL84qQ4w/epzd3s5q7Wm5cqVC6aKYPhfNWO4zM09FghtzxqxqDJlY1p+KneuVxTCMtstl7ebcHDkbNe4H3v+5uEBmFguQ/bdvcj2oDyZeA1CqaAarvHeZS5t6YF2kLU6++fv/MBjG2dbJRmHcaGe6Dw+ZtlnFhauxZNLeEplQ00qCCAwIHYng2oUtumjVZPcqdhf+HFwiE7sIC70PLem5bjRpoUsMmRsKMz+0DvKq0WbbGnLJxLnS8lXsrfVJGBFZ/K52DDNNt1U6wTvQoMISfxsKbHQYXMMWrp+FO7KJSx6ZbmQU02GUIAqTZimfeH2F1Fv/gLtrJ3gf2PJ07gYp2PBe7SRh5vsxpz51bmMh9mZeya5vn4Q8FYy5S4F0Fhldzf9L+3tU2BpgLplrmon8UftB/WzciOJM5q0lYBty1D7U73P16FGjOKd1y93cPnHmH8At5ZOcFAibaa5jC/HPQ5v8NW+ZmkVL169xivyPAVE75jiR8rD9xP7tz3VPoX0QEBuhnoeCI8nGFqS76/i/c5+HaosxtvQ3ctLWuBg2JYHRx9BmlMk79u8EJEnTHdqToTj72PZECVj3K+0Ik91KmoId4Ufq9SgAl/0f14z204HrUNhGOdZisfA23jY7iZL/AQxsbnsI9I8bYzzWT7j8OG4eqOPDbSeXK2PW+DFKoqI/QZW1efRmzXZzxtpZxcekWvSncHvkTp2DjWQW7S9glNsTapjrTZpmPZlD+1vIhVw+Vy8k0VCCBAkSJEiQIEGCBAkSJEiQIEGCBAkSJEiQIEGCX4v/A5Rs4l1WA1lQAAAAAElFTkSuQmCC;" vertex="1" parent="14">
          <mxGeometry x="69.99000000000001" y="446" width="141.97" height="65" as="geometry" />
        </mxCell>
        <mxCell id="dlkvKGnTGBFowRJgqsGc-1054" value="" style="shape=image;verticalLabelPosition=bottom;labelBackgroundColor=default;verticalAlign=top;aspect=fixed;imageAspect=0;image=data:image/png,iVBORw0KGgoAAAANSUhEUgAAARMAAAC3CAMAAAAGjUrGAAAAvVBMVEX///9EhvhEhvlFhfNDh/xEhfVAe+BAe95Gg+tFhO5FhfJAe+FBettGg+o/fOQ3gf2wyP6xxvU6fem9zvQwdeNplOZrm/f09/75+/+vw+0sevM3fvKduvi+0fo0dNnu8/7L2v4qfP2ErP3i6/5flvx6pfxUkPuVtvza5f27z/zH1/ymwPrN2vcqefRPjf03gftkmPeYtO+lvfEnceMXa+JejuiAo+xul+Ypd+2IqOhsleMlbtpXje1ThN55neTE3X91AAAGCElEQVR4nO2b21riShBGEySgRIPEKEzCYQAV5GBUlO3eOPv9H2sCkRnHaaCq00lX+9W6ylV/1qK6OvkTLYthGIZhGIZhGIZhGIZhGIZhGIZhGIZhGEY7ve+Nc1ka33u6//wcOL/v17PQvz/XXYJiOvV6OSv1ekd3GSoZ9DMbWdMf6C5EHTfZmySlfqO7FFW0VSlJpLR1F6OGoZqNk9If6i5HCdcKlZTL17rLUUFH3c5Z8yUOH6VG1uguKDvtWLGS2Pgx21Q5YFP6Td1FZeRGuZJy2fCblLH6NkkaZay7rEzc5qCkXL7VXVYW7tSew1vqd7oLy4DqM2dLrLsweUZxKR/ike7SZOn1c1JSKvVNjd2u8mqTpFGudBcnxyy/NkkaZaa7PCnuyzk6Kd/rLk+G83qOSkqluoGRdStfJaXSvKW7RDSD/AZsSmxcYD2c56wkGbOmxZDXeQ7YFNNiyEn+bZJMlInuMlEUYGSN7jIxTGO7COKp7kLhNOeFKLHtuTkx5E25ICfmxJDjotokaRRTYsjbUmFOSobEkHfFDNiU2IwYMi6uTZJGMSKGHEUFKrHtyIAYslfcgE2Z048hr4rcOWtK5GPIWViwEtsOqceQt4UrsW3i5/F5kefwlph0DNmKHR3ElGPIUaTFCeXzeDjXosRx5nRjyAcbVAFqWMBWfNBd+i4mIaiA6AoDbDeGVGNIB/SjhrgcqAcSbTs51ZSRKegntW3ksgFkVSciGUM2YTvHwQbLgQdaFtl+xTAAnsMwJ4/B2fste+CBpEQEXwuOoecwyMnTwvOf0wfexAlICsEY8hp2agKdvPieFzQ2l2snECk2udeCHeA0ATpZJiYW6ebZOIFICan9dwL8ph7kpOkvnpfpZeoEIiXKs0A87egIiAM8i2fb2/V3J97hpSNS/53QCqFKwE5+sXUCkBJSej5ugNsk+TWRay88sJSokUt1clw5cCf24ALD0vfAUmxK0SyiTZK/PAoQfFByWAqhKYsYJxtqniwHFiY0UHpIJ0cnrrSUvbs0pPOuB9snmaTsdUKnT3DzxInWQOcJSgqheYI6d6JBZw343EFIcSh9opPn/QmiU0jdn2DuY7Ep4d9OdkqhNE5QzztAJ7NtHCJw4tXEbULqeceynKMajCOQk6YXLC7Ty8AVIL9ygXQipU6WvusGF5tLoRNPsHJELT+x3hyVTl68xMnj5lLoRCDFecu1PhnGoUonTwvXfU4nitjJ39snpJfHWgNYowB3/aNXTbfOTiefpDgEc3ur+arSyW92Ovlz+7xSfL9jTWFj9gi5bFDZxcdOofke0LJASmoR8n3xbieVysnvZXOqKSsTWKM4lxg8d7cSt/JLNNXvCqwH4JjFZAO7pskfg9Yh+/2JNQSex7UDhWLYrBfS/U7JGkHvZtVKofw9m9WCOqm5FUVK1qdPROp5+DMNsJQ9pwkWUrGJgDOoE3VS3FPdRR9gBrubVSllQf17e+sG+HysTIr7j+6SD9KDN4oaKQs673R20gaPWSVS3lMW4vi1EzDVzE66ussF0YngTjJLWV3oLhfGG6JRMkpxf+guFsj4FeEkm5QVwcBRzNIpSEr3f92lgmmiGiWDlBXJwFHM1MdJkaT7pLtQDCglslIqVd1lophgzmNZKSuygaOYB8x5LCel8qK7SCRD3JiVkbIiHDiKGeHGLF5K91/dJaJpIScKWsqKdOAopoFtlJPqKaZNvukuUIYzrBNUp1APHMXM0LsHIWVFPnAUc4k8jxFSKv/pLk6SHvY8hktZGRA4immjxyxQSteIwFGMf4ynenoYMwJHMZ0oFymmBI5i3k5ykFIxJXAUM36VcHJIijmBo5ilzEjZL8WgwFFMU6pR9koxKXAUM5VqlD1SzAocxchM2X1SzAocxUwCpVLMPoe3vCjtFNMCRzFDuTErlmJe4ChGcsyKpHyFAZsid5MikGL8rckHlsHxmQzHnzaOebH0Hi58X87Kxybpfokj5wONt8CXofvO6oeRofQBerO7hgTf1lzMjA3WGIZhGIZhGIZhGIZhGIZhGIZhGIZhGIb5SvwEyHJiWytYVMUAAAAASUVORK5CYII=;" vertex="1" parent="14">
          <mxGeometry x="459.01" y="476" width="130.99" height="87.17" as="geometry" />
        </mxCell>
        <mxCell id="dlkvKGnTGBFowRJgqsGc-1055" value="&lt;font style=&quot;font-size: 18px;&quot;&gt;Google Cloud Storage Buckets&lt;/font&gt;" style="text;html=1;whiteSpace=wrap;strokeColor=none;fillColor=none;align=center;verticalAlign=middle;rounded=0;" vertex="1" parent="14">
          <mxGeometry x="449.5" y="576" width="150" height="30" as="geometry" />
        </mxCell>
        <mxCell id="1Lb6V3S0d3qDh9J-p9Ao-1051" value="&lt;font style=&quot;font-size: 18px;&quot;&gt;Motor de base de datos&lt;/font&gt;" style="text;html=1;whiteSpace=wrap;strokeColor=none;fillColor=none;align=center;verticalAlign=middle;rounded=0;" vertex="1" parent="14">
          <mxGeometry x="69.99" y="516" width="119.52" height="30" as="geometry" />
        </mxCell>
        <mxCell id="1Lb6V3S0d3qDh9J-p9Ao-1052" value="Cloud&#xa;Run" style="sketch=0;html=1;verticalAlign=top;labelPosition=center;verticalLabelPosition=bottom;align=center;spacingTop=-6;fontSize=11;fontStyle=1;fontColor=#999999;shape=image;aspect=fixed;imageAspect=0;image=data:image/svg+xml,PHN2ZyB4bWxucz0iaHR0cDovL3d3dy53My5vcmcvMjAwMC9zdmciIHhtbG5zOnY9Imh0dHBzOi8vdmVjdGEuaW8vbmFubyIgd2lkdGg9IjM2NS40NjQ5OTY3NzA0MjQ5MyIgaGVpZ2h0PSIzNzkuMjIyOTk0NDYzNTc3OTUiIHZpZXdCb3g9IjAgMCA5Ni42OTU5OTkxNDU1MDc4MSAxMDAuMzM1OTk4NTM1MTU2MjUiPiYjeGE7PHN0eWxlIHR5cGU9InRleHQvY3NzIj4mI3hhOwkuc3Qwe2ZpbGw6IzQyODVmNDt9JiN4YTsJLnN0MXtmaWxsOiNhZWNiZmE7fSYjeGE7PC9zdHlsZT4mI3hhOwk8cGF0aCBjbGFzcz0ic3QwIiBkPSJNMjkuNzk0IDEwMC4zMzZMNDYuOTIgNTAuMTY4aDQ5Ljc3NnpNMCA5OS42NzFsMTIuOTc2LTQ5LjUwMkgyOS4yMkwxNi44OTcgOTIuMDU0eiIvPiYjeGE7CTxwYXRoIGNsYXNzPSJzdDEiIGQ9Ik0yOS43OTQgMEw0Ni45MiA1MC4xNjhoNDkuNzc2ek0wIC42NjZsMTIuOTc2IDQ5LjUwMkgyOS4yMkwxNi44OTcgOC4yODN6Ii8+JiN4YTs8L3N2Zz4=;" vertex="1" parent="14">
          <mxGeometry x="330" y="346" width="42" height="42" as="geometry" />
        </mxCell>
        <mxCell id="1Lb6V3S0d3qDh9J-p9Ao-1053" value="" style="endArrow=classic;html=1;rounded=0;entryX=0.476;entryY=0.071;entryDx=0;entryDy=0;entryPerimeter=0;strokeWidth=2;strokeColor=light-dark(#4284f3, #ededed);" edge="1" parent="14" target="1Lb6V3S0d3qDh9J-p9Ao-1052">
          <mxGeometry width="50" height="50" relative="1" as="geometry">
            <mxPoint x="350" y="306" as="sourcePoint" />
            <mxPoint x="370" y="286" as="targetPoint" />
          </mxGeometry>
        </mxCell>
        <mxCell id="1Lb6V3S0d3qDh9J-p9Ao-1055" value="" style="endArrow=classic;html=1;rounded=0;entryX=0.521;entryY=0.062;entryDx=0;entryDy=0;entryPerimeter=0;strokeWidth=2;strokeColor=light-dark(#4284f3, #ededed);exitX=-0.095;exitY=0.619;exitDx=0;exitDy=0;exitPerimeter=0;" edge="1" parent="14" source="1Lb6V3S0d3qDh9J-p9Ao-1052" target="dlkvKGnTGBFowRJgqsGc-1053">
          <mxGeometry width="50" height="50" relative="1" as="geometry">
            <mxPoint x="310" y="436" as="sourcePoint" />
            <mxPoint x="310" y="479" as="targetPoint" />
            <Array as="points">
              <mxPoint x="144" y="376" />
            </Array>
          </mxGeometry>
        </mxCell>
        <mxCell id="1Lb6V3S0d3qDh9J-p9Ao-1056" value="" style="endArrow=classic;html=1;rounded=0;entryX=0.572;entryY=0.034;entryDx=0;entryDy=0;entryPerimeter=0;strokeWidth=2;strokeColor=light-dark(#4284f3, #ededed);exitX=0.952;exitY=0.476;exitDx=0;exitDy=0;exitPerimeter=0;" edge="1" parent="14" source="1Lb6V3S0d3qDh9J-p9Ao-1052" target="dlkvKGnTGBFowRJgqsGc-1054">
          <mxGeometry width="50" height="50" relative="1" as="geometry">
            <mxPoint x="450" y="376" as="sourcePoint" />
            <mxPoint x="450" y="419" as="targetPoint" />
            <Array as="points">
              <mxPoint x="534" y="366" />
            </Array>
          </mxGeometry>
        </mxCell>
        <mxCell id="818" value="Despliegue de aplicaciÃ³n mÃ³vil y almacenamiento" style="fillColor=#4DA1F5;strokeColor=none;shadow=1;gradientColor=none;fontSize=14;align=left;spacingLeft=50;fontColor=#ffffff;html=1;" vertex="1" parent="1">
          <mxGeometry x="230" y="40" width="720" height="40" as="geometry" />
        </mxCell>
      </root>
    </mxGraphModel>
  </diagram>
</mxfile>
